<?xml version="1.0" standalone="no"?>
<!DOCTYPE svg PUBLIC "-//W3C//DTD SVG 20010904//EN"
 "http://www.w3.org/TR/2001/REC-SVG-20010904/DTD/svg10.dtd">
<svg version="1.0" xmlns="http://www.w3.org/2000/svg"
 width="200.000000pt" height="228.000000pt" viewBox="0 0 200.000000 228.000000"
 preserveAspectRatio="xMidYMid meet">
<metadata>
Created by potrace 1.16, written by Peter Selinger 2001-2019
</metadata>
<g transform="translate(0.000000,228.000000) scale(0.100000,-0.100000)"
fill="#000000" stroke="none">
<path d="M849 1729 c-16 -17 -34 -48 -40 -70 -9 -27 -18 -39 -31 -39 -11 0
-18 -7 -18 -20 0 -19 -7 -20 -103 -20 -88 0 -106 -3 -120 -18 -15 -16 -17 -54
-17 -325 0 -264 2 -308 16 -321 13 -14 51 -16 260 -16 l244 0 0 -61 c0 -60 0
-60 38 -77 53 -23 271 -23 324 0 l37 17 3 82 c2 60 7 84 18 90 8 4 43 20 78
35 34 15 62 30 62 34 0 4 -36 22 -80 40 l-80 32 0 228 c0 275 7 260 -128 260
-85 0 -92 1 -92 20 0 13 -7 20 -18 20 -13 0 -21 13 -30 46 -7 25 -24 56 -39
70 -24 23 -33 24 -140 24 l-115 0 -29 -31z m276 -15 c25 -27 42 -81 30 -92 -4
-4 -10 -1 -12 6 -3 7 -16 26 -30 42 -24 29 -27 30 -121 30 -90 0 -97 -2 -124
-27 -15 -15 -28 -33 -28 -40 0 -7 -4 -13 -10 -13 -14 0 -12 16 6 53 33 65 37
67 156 67 104 0 110 -1 133 -26z m-28 -56 c28 -26 29 -38 3 -38 -13 0 -20 -7
-20 -20 0 -19 -7 -20 -90 -20 -83 0 -90 1 -90 20 0 13 -7 20 -20 20 -25 0 -25
11 0 38 18 19 31 22 107 22 75 0 90 -3 110 -22z m-179 -363 c-1 -240 -2 -255
-19 -260 -25 -8 -24 -20 4 -32 19 -9 23 -17 19 -42 l-4 -31 -119 0 -119 0 0
49 c0 64 -17 81 -81 81 l-49 0 0 70 0 70 175 0 c110 0 175 4 175 10 0 6 -65
10 -175 10 l-175 0 0 158 c0 87 3 162 7 165 3 4 86 7 184 7 l177 0 0 -255z
m122 229 c0 -14 4 -23 10 -19 6 3 10 15 10 26 0 19 7 19 173 17 l172 -3 3
-162 2 -163 -165 0 c-103 0 -165 -4 -165 -10 0 -6 62 -10 165 -10 l165 0 0
-45 c0 -25 -3 -45 -7 -45 -5 0 -42 14 -84 31 l-76 30 -89 -35 c-48 -19 -89
-34 -91 -33 -1 1 -1 29 -1 62 2 154 -3 290 -12 299 -7 7 -10 -5 -10 -34 l0
-45 -50 0 -50 0 0 83 0 82 50 0 c47 0 50 -2 50 -26z m359 -438 c79 -31 148
-59 153 -62 5 -4 -63 -39 -151 -79 l-160 -74 -156 71 c-85 39 -155 74 -155 77
0 9 303 130 315 126 6 -2 75 -28 154 -59z m-246 -201 c42 -19 82 -35 89 -35 7
0 40 13 74 29 108 51 104 51 104 -17 0 -38 -5 -64 -13 -71 -26 -21 -161 -33
-244 -21 -42 5 -82 15 -90 21 -15 13 -19 129 -4 129 4 0 42 -16 84 -35z"/>
</g>
</svg>
